HIERARCHY
ROOT Hips
{
    OFFSET 0.000000 0.000000 0.000000
    CHANNELS 6 Xposition Yposition Zposition Zrotation Xrotation Yrotation
    JOINT Spine
    {
        OFFSET -0.000000 0.072775 0.000000
        CHANNELS 3 Zrotation Xrotation Yrotation
        JOINT Spine1
        {
            OFFSET -0.000000 0.195886 0.000000
            CHANNELS 3 Zrotation Xrotation Yrotation
            JOINT Neck
            {
                OFFSET -0.000000 0.195082 0.017735
                CHANNELS 3 Zrotation Xrotation Yrotation
                JOINT Head
                {
                    OFFSET -0.000000 0.124250 -0.017750
                    CHANNELS 3 Zrotation Xrotation Yrotation
                    End Site
                    {
                        OFFSET -0.000000 0.177500 0.000000
                    }
                }
            }
            JOINT LeftShoulder
            {
                OFFSET 0.035772 0.183979 -0.000787
                CHANNELS 3 Zrotation Xrotation Yrotation
                JOINT LeftArm
                {
                    OFFSET 0.089258 0.000000 0.000000
                    CHANNELS 3 Zrotation Xrotation Yrotation
                    JOINT LeftForeArm
                    {
                        OFFSET 0.285064 0.000000 0.000000
                        CHANNELS 3 Zrotation Xrotation Yrotation
                        JOINT LeftHand
                        {
                            OFFSET 0.227012 0.000000 0.000000
                            CHANNELS 3 Zrotation Xrotation Yrotation
                            JOINT LeftHandThumb1
                            {
                                OFFSET 0.022188 -0.013313 0.044375
                                CHANNELS 3 Zrotation Xrotation Yrotation
                                JOINT LeftHandThumb2
                                {
                                    OFFSET 0.026625 0.000000 0.000000
                                    CHANNELS 3 Zrotation Xrotation Yrotation
                                    JOINT LeftHandThumb3
                                    {
                                        OFFSET 0.026625 0.000000 0.000000
                                        CHANNELS 3 Zrotation Xrotation Yrotation
                                        End Site
                                        {
                                            OFFSET 0.023630 0.000000 0.000000
                                        }
                                    }
                                }
                            }
                            JOINT LeftHandIndex1
                            {
                                OFFSET 0.079875 0.000000 0.031063
                                CHANNELS 3 Zrotation Xrotation Yrotation
                                JOINT LeftHandIndex2
                                {
                                    OFFSET 0.044375 0.000000 0.000000
                                    CHANNELS 3 Zrotation Xrotation Yrotation
                                    JOINT LeftHandIndex3
                                    {
                                        OFFSET 0.022188 0.000000 0.000000
                                        CHANNELS 3 Zrotation Xrotation Yrotation
                                        End Site
                                        {
                                            OFFSET 0.019691 0.000000 0.000000
                                        }
                                    }
                                }
                            }
                            JOINT LeftHandMiddle1
                            {
                                OFFSET 0.079875 0.000000 0.010295
                                CHANNELS 3 Zrotation Xrotation Yrotation
                                JOINT LeftHandMiddle2
                                {
                                    OFFSET 0.048813 0.000000 0.000000
                                    CHANNELS 3 Zrotation Xrotation Yrotation
                                    JOINT LeftHandMiddle3
                                    {
                                        OFFSET 0.026625 0.000000 0.000000
                                        CHANNELS 3 Zrotation Xrotation Yrotation
                                        End Site
                                        {
                                            OFFSET 0.023630 0.000000 0.000000
                                        }
                                    }
                                }
                            }
                            JOINT LeftHandRing1
                            {
                                OFFSET 0.075438 0.000000 -0.010295
                                CHANNELS 3 Zrotation Xrotation Yrotation
                                JOINT LeftHandRing2
                                {
                                    OFFSET 0.044375 0.000000 0.000000
                                    CHANNELS 3 Zrotation Xrotation Yrotation
                                    JOINT LeftHandRing3
                                    {
                                        OFFSET 0.022188 0.000000 0.000000
                                        CHANNELS 3 Zrotation Xrotation Yrotation
                                        End Site
                                        {
                                            OFFSET 0.019691 0.000000 0.000000
                                        }
                                    }
                                }
                            }
                            JOINT LeftHandPinky1
                            {
                                OFFSET 0.071000 0.000000 -0.031063
                                CHANNELS 3 Zrotation Xrotation Yrotation
                                JOINT LeftHandPinky2
                                {
                                    OFFSET 0.035500 0.000000 0.000000
                                    CHANNELS 3 Zrotation Xrotation Yrotation
                                    JOINT LeftHandPinky3
                                    {
                                        OFFSET 0.017750 0.000000 0.000000
                                        CHANNELS 3 Zrotation Xrotation Yrotation
                                        End Site
                                        {
                                            OFFSET 0.015753 0.000000 0.000000
                                        }
                                    }
                                }
                            }
                        }
                    }
                }
            }
            JOINT RightShoulder
            {
                OFFSET -0.035163 0.183979 -0.000787
                CHANNELS 3 Zrotation Xrotation Yrotation
                JOINT RightArm
                {
                    OFFSET -0.089258 0.000000 0.000000
                    CHANNELS 3 Zrotation Xrotation Yrotation
                    JOINT RightForeArm
                    {
                        OFFSET -0.285064 0.000000 0.000000
                        CHANNELS 3 Zrotation Xrotation Yrotation
                        JOINT RightHand
                        {
                            OFFSET -0.227012 0.000000 0.000000
                            CHANNELS 3 Zrotation Xrotation Yrotation
                            JOINT RightHandThumb1
                            {
                                OFFSET -0.022188 -0.013313 0.044375
                                CHANNELS 3 Zrotation Xrotation Yrotation
                                JOINT RightHandThumb2
                                {
                                    OFFSET -0.026625 0.000000 0.000000
                                    CHANNELS 3 Zrotation Xrotation Yrotation
                                    JOINT RightHandThumb3
                                    {
                                        OFFSET -0.026625 0.000000 0.000000
                                        CHANNELS 3 Zrotation Xrotation Yrotation
                                        End Site
                                        {
                                            OFFSET -0.023630 0.000000 0.000000
                                        }
                                    }
                                }
                            }
                            JOINT RightHandIndex1
                            {
                                OFFSET -0.079875 0.000000 0.031063
                                CHANNELS 3 Zrotation Xrotation Yrotation
                                JOINT RightHandIndex2
                                {
                                    OFFSET -0.044375 0.000000 0.000000
                                    CHANNELS 3 Zrotation Xrotation Yrotation
                                    JOINT RightHandIndex3
                                    {
                                        OFFSET -0.022188 0.000000 0.000000
                                        CHANNELS 3 Zrotation Xrotation Yrotation
                                        End Site
                                        {
                                            OFFSET -0.019691 0.000000 0.000000
                                        }
                                    }
                                }
                            }
                            JOINT RightHandMiddle1
                            {
                                OFFSET -0.079875 0.000000 0.010295
                                CHANNELS 3 Zrotation Xrotation Yrotation
                                JOINT RightHandMiddle2
                                {
                                    OFFSET -0.048813 0.000000 0.000000
                                    CHANNELS 3 Zrotation Xrotation Yrotation
                                    JOINT RightHandMiddle3
                                    {
                                        OFFSET -0.026625 0.000000 0.000000
                                        CHANNELS 3 Zrotation Xrotation Yrotation
                                        End Site
                                        {
                                            OFFSET -0.023630 0.000000 0.000000
                                        }
                                    }
                                }
                            }
                            JOINT RightHandRing1
                            {
                                OFFSET -0.075438 0.000000 -0.010295
                                CHANNELS 3 Zrotation Xrotation Yrotation
                                JOINT RightHandRing2
                                {
                                    OFFSET -0.044375 0.000000 0.000000
                                    CHANNELS 3 Zrotation Xrotation Yrotation
                                    JOINT RightHandRing3
                                    {
                                        OFFSET -0.022188 0.000000 0.000000
                                        CHANNELS 3 Zrotation Xrotation Yrotation
                                        End Site
                                        {
                                            OFFSET -0.019691 0.000000 0.000000
                                        }
                                    }
                                }
                            }
                            JOINT RightHandPinky1
                            {
                                OFFSET -0.071000 0.000000 -0.031063
                                CHANNELS 3 Zrotation Xrotation Yrotation
                                JOINT RightHandPinky2
                                {
                                    OFFSET -0.035500 0.000000 0.000000
                                    CHANNELS 3 Zrotation Xrotation Yrotation
                                    JOINT RightHandPinky3
                                    {
                                        OFFSET -0.017750 0.000000 0.000000
                                        CHANNELS 3 Zrotation Xrotation Yrotation
                                        End Site
                                        {
                                            OFFSET -0.015753 0.000000 0.000000
                                        }
                                    }
                                }
                            }
                        }
                    }
                }
            }
        }
    }
    JOINT LeftUpLeg
    {
        OFFSET 0.088750 0.000000 0.000000
        CHANNELS 3 Zrotation Xrotation Yrotation
        JOINT LeftLeg
        {
            OFFSET -0.000000 -0.379026 0.000000
            CHANNELS 3 Zrotation Xrotation Yrotation
            JOINT LeftFoot
            {
                OFFSET -0.000000 -0.385721 0.000000
                CHANNELS 3 Zrotation Xrotation Yrotation
                JOINT LeftToeBase
                {
                    OFFSET -0.000000 -0.057688 0.133125
                    CHANNELS 3 Zrotation Xrotation Yrotation
                    End Site
                    {
                        OFFSET -0.000000 0.000000 0.035500
                    }
                }
            }
        }
    }
    JOINT RightUpLeg
    {
        OFFSET -0.088750 0.000000 0.000000
        CHANNELS 3 Zrotation Xrotation Yrotation
        JOINT RightLeg
        {
            OFFSET -0.000000 -0.379026 0.000000
            CHANNELS 3 Zrotation Xrotation Yrotation
            JOINT RightFoot
            {
                OFFSET -0.000000 -0.385721 0.000000
                CHANNELS 3 Zrotation Xrotation Yrotation
                JOINT RightToeBase
                {
                    OFFSET -0.000000 -0.057688 0.133125
                    CHANNELS 3 Zrotation Xrotation Yrotation
                    End Site
                    {
                        OFFSET -0.000000 0.000000 0.035500
                    }
                }
            }
        }
    }
}
MOTION
Frames:    5
Frame Time:    0.040000
0.581928    0.775235    1.182897    -4.768346    -1.783192    52.772308    6.555047    -0.171163    10.680838    0.945537    8.111133    3.489314    5.562479    11.630784    16.725399    -26.020456    -8.011008    11.732021    5.131239    1.981244    -7.977610    -25.432411    15.857503    -33.815361    60.651150    -48.524155    -40.296211    -14.740692    -7.774597    -14.783782    -5.526456    -11.227930    -23.028387    0.000000    0.000000    0.000000    0.000000    0.000000    0.000000    -89.999992    0.000000    0.000000    -110.000000    0.000000    0.000000    -80.000000    0.000000    0.000000    -45.450001    0.000000    0.000000    -73.700012    0.000000    0.000000    -53.599995    0.000000    0.000000    -0.899995    0.000000    0.000000    -37.399990    0.000000    0.000000    -27.200001    0.000000    0.000000    45.000004    0.000000    -0.000000    0.000000    0.000000    0.000000    0.000000    0.000000    0.000000    -9.136218    1.914856    11.114909    1.213392    41.060635    90.505135    -55.593815    -19.086691    58.648609    -130.248932    43.982719    42.772491    -0.988219    20.102436    -34.892952    0.000000    0.000000    -24.066879    0.000000    0.000000    -48.133766    32.139278    0.000000    -0.000000    64.278557    0.000000    -0.000000    32.139278    0.000000    -0.000000    34.460773    0.000000    -0.000000    68.921539    0.000000    -0.000000    34.460773    0.000000    -0.000000    36.782265    0.000000    -0.000000    73.564522    0.000000    -0.000000    36.782265    0.000000    -0.000000    39.174107    0.000000    -0.000000    78.348206    0.000000    -0.000000    39.174107    0.000000    -0.000000    29.508848    -23.915871    0.669128    -11.649439    23.471876    16.177086    -27.558695    3.530909    -3.409881    4.535015    -6.484687    -5.752066    -16.991034    11.602765    -8.979268    6.637289    6.759792    -7.187212    21.469938    -12.159785    -0.593766    1.154576    -7.470636    2.189700    
0.582058    0.775268    1.183013    -4.766327    -1.783210    52.729176    6.569051    -0.253914    10.677959    0.971651    8.225370    3.483970    5.465949    11.353806    16.827538    -25.832434    -7.697958    11.940116    5.138721    1.957706    -7.998610    -25.476503    15.708121    -33.856354    60.683231    -48.468163    -40.319031    -14.691742    -7.699924    -14.807858    -5.383586    -11.282398    -22.792671    0.000000    0.000000    0.000000    0.000000    0.000000    0.000000    -89.999992    0.000000    0.000000    -110.000000    0.000000    0.000000    -80.000000    0.000000    0.000000    -45.450001    0.000000    0.000000    -73.700012    0.000000    0.000000    -53.599995    0.000000    0.000000    -0.899995    0.000000    0.000000    -37.399990    0.000000    0.000000    -27.200001    0.000000    0.000000    45.000004    0.000000    -0.000000    0.000000    0.000000    0.000000    0.000000    0.000000    0.000000    -9.127254    1.931829    11.071389    2.209591    41.110065    89.996681    -55.605648    -19.102942    58.775074    -124.715523    40.017288    40.627285    0.422266    23.033194    -40.318447    0.000000    0.000000    -27.449718    0.000000    0.000000    -54.899437    30.071262    0.000000    -0.000000    60.142517    0.000000    -0.000000    30.071262    0.000000    -0.000000    25.704559    0.000000    -0.000000    51.409119    0.000000    -0.000000    25.704559    0.000000    -0.000000    21.337854    0.000000    -0.000000    42.675709    0.000000    -0.000000    21.337854    0.000000    -0.000000    16.838827    0.000000    -0.000000    33.677662    0.000000    -0.000000    16.838827    0.000000    -0.000000    29.512812    -23.887659    0.619494    -11.692995    23.469090    16.269533    -27.335564    3.562314    -3.420831    5.042175    -6.262647    -6.265358    -17.009146    11.565704    -9.227856    6.610014    6.860895    -6.823046    21.461628    -12.222310    -0.657362    1.624656    -8.148760    1.787676    
0.582235    0.775237    1.183014    -4.786149    -1.762035    52.703094    6.589716    -0.380459    10.709286    0.980619    8.333404    3.490455    5.353681    11.116415    16.873045    -25.630604    -7.422085    12.085216    5.168602    1.946030    -8.081177    -25.511738    15.589931    -33.856194    60.693623    -48.499184    -40.355717    -14.820178    -7.789457    -14.921213    -5.102085    -10.734881    -21.767338    0.000000    0.000000    0.000000    0.000000    0.000000    0.000000    -89.999992    0.000000    0.000000    -110.000000    0.000000    0.000000    -80.000000    0.000000    0.000000    -45.450001    0.000000    0.000000    -73.700012    0.000000    0.000000    -53.599995    0.000000    0.000000    -0.899995    0.000000    0.000000    -37.399990    0.000000    0.000000    -27.200001    0.000000    0.000000    45.000004    0.000000    -0.000000    0.000000    0.000000    0.000000    0.000000    0.000000    0.000000    -9.125658    1.926400    11.053487    2.717283    41.124969    89.705750    -55.574181    -19.048683    59.003246    -123.041840    38.759090    39.972511    0.852762    23.824396    -41.868378    0.000000    0.000000    -28.381699    0.000000    0.000000    -56.763397    29.499302    0.000000    -0.000000    58.998604    0.000000    -0.000000    29.499302    0.000000    -0.000000    21.347830    0.000000    -0.000000    42.695660    0.000000    -0.000000    21.347830    0.000000    -0.000000    13.196362    0.000000    -0.000000    26.392719    0.000000    -0.000000    13.196362    0.000000    -0.000000    4.797875    0.000000    -0.000000    9.595749    0.000000    -0.000000    4.797875    0.000000    -0.000000    29.516098    -23.937254    0.572492    -11.758018    23.540253    16.175159    -27.207985    3.428768    -3.244502    5.005954    -6.064762    -6.197844    -17.033924    11.560596    -9.201987    6.630298    6.812566    -7.031580    21.515114    -12.110955    -0.478961    1.118042    -7.434786    2.231047    
0.582422    0.775238    1.182975    -4.806392    -1.746107    52.650379    6.596553    -0.512154    10.703817    1.006961    8.462663    3.483074    5.233531    10.978665    16.916227    -25.495592    -7.292891    12.186618    5.199973    1.928316    -8.009669    -25.667490    15.292273    -33.840847    60.507942    -48.310871    -40.692345    -14.799151    -7.929083    -14.843246    -5.213314    -10.655868    -21.918392    0.000000    0.000000    0.000000    0.000000    0.000000    0.000000    -89.999992    0.000000    0.000000    -110.000000    0.000000    0.000000    -80.000000    0.000000    0.000000    -45.450001    0.000000    0.000000    -73.700012    0.000000    0.000000    -53.599995    0.000000    0.000000    -0.899995    0.000000    0.000000    -37.399990    0.000000    0.000000    -27.200001    0.000000    0.000000    45.000004    0.000000    -0.000000    0.000000    0.000000    0.000000    0.000000    0.000000    0.000000    -9.069608    1.933062    11.094102    2.337713    41.092331    89.921181    -55.575317    -19.049231    59.068588    -124.770256    40.208359    40.378857    0.699394    22.906269    -39.941162    0.000000    0.000000    -27.317890    0.000000    0.000000    -54.635780    30.371069    0.000000    -0.000000    60.742142    0.000000    -0.000000    30.371069    0.000000    -0.000000    26.323511    0.000000    -0.000000    52.647011    0.000000    -0.000000    26.323511    0.000000    -0.000000    22.275951    0.000000    -0.000000    44.551891    0.000000    -0.000000    22.275951    0.000000    -0.000000    18.105734    0.000000    -0.000000    36.211468    0.000000    -0.000000    18.105734    0.000000    -0.000000    29.526596    -23.990946    0.632283    -11.763571    23.659403    16.093817    -27.131237    3.278564    -3.204008    5.053423    -6.151172    -6.261324    -17.065210    11.558960    -9.137582    6.672562    6.728174    -7.100416    21.517065    -12.019334    -0.463771    1.089737    -7.388830    2.251977    
0.582666    0.775298    1.182921    -4.789107    -1.760970    52.621338    6.635458    -0.604633    10.654915    0.980217    8.591143    3.465814    5.190004    10.827938    17.005699    -25.383284    -7.033144    12.356285    5.215624    1.899852    -7.952427    -25.560188    15.408487    -33.797283    60.715282    -48.382683    -40.383816    -14.791463    -7.845634    -14.893196    -5.213314    -10.655868    -21.918392    0.000000    0.000000    0.000000    0.000000    0.000000    0.000000    -89.999992    0.000000    0.000000    -110.000000    0.000000    0.000000    -80.000000    0.000000    0.000000    -45.450001    0.000000    0.000000    -73.700012    0.000000    0.000000    -53.599995    0.000000    0.000000    -0.899995    0.000000    0.000000    -37.399990    0.000000    0.000000    -27.200001    0.000000    0.000000    45.000004    0.000000    -0.000000    0.000000    0.000000    0.000000    0.000000    0.000000    0.000000    -9.026344    1.991675    11.174605    2.502154    41.167473    89.832840    -55.568832    -19.037611    59.132034    -124.394417    40.240078    40.406097    0.702219    23.017639    -40.178875    0.000000    0.000000    -27.463840    0.000000    0.000000    -54.927692    30.001768    0.000000    -0.000000    60.003536    0.000000    -0.000000    30.001768    0.000000    -0.000000    23.255363    0.000000    -0.000000    46.510712    0.000000    -0.000000    23.255363    0.000000    -0.000000    16.508947    0.000000    -0.000000    33.017895    0.000000    -0.000000    16.508947    0.000000    -0.000000    9.558104    0.000000    -0.000000    19.116203    0.000000    -0.000000    9.558104    0.000000    -0.000000    29.500404    -23.953978    0.624756    -11.749108    23.689100    16.014509    -27.098341    3.247506    -3.126742    5.024573    -6.228795    -6.241543    -17.059341    11.569792    -8.858838    6.662568    6.704433    -7.214676    21.476234    -12.042850    -0.604162    1.133021    -7.432287    2.203614    
